<mxfile host="app.diagrams.net" modified="2024-04-21T13:32:35.353Z" agent="Mozilla/5.0 (Macintosh; Intel Mac OS X 10_15_7) AppleWebKit/537.36 (KHTML, like Gecko) Chrome/124.0.0.0 Safari/537.36" etag="JuNakaStKu7z2uFNb975" version="21.2.9" type="device">
  <diagram name="Page-1" id="UwOFere-F4x9beavCsyz">
    <mxGraphModel dx="1519" dy="1121" grid="1" gridSize="10" guides="1" tooltips="1" connect="1" arrows="1" fold="1" page="1" pageScale="1" pageWidth="850" pageHeight="1100" math="0" shadow="0">
      <root>
        <mxCell id="0" />
        <mxCell id="1" parent="0" />
        <mxCell id="5r4Gnk9QoCO9Y91nPAs9-1" value="Client" style="shape=umlActor;verticalLabelPosition=bottom;verticalAlign=top;html=1;outlineConnect=0;" vertex="1" parent="1">
          <mxGeometry x="50" y="200" width="30" height="60" as="geometry" />
        </mxCell>
        <mxCell id="5r4Gnk9QoCO9Y91nPAs9-3" value="ETH API Node" style="rounded=0;whiteSpace=wrap;html=1;" vertex="1" parent="1">
          <mxGeometry x="215" y="720" width="120" height="60" as="geometry" />
        </mxCell>
        <mxCell id="5r4Gnk9QoCO9Y91nPAs9-4" value="" style="rounded=0;whiteSpace=wrap;html=1;" vertex="1" parent="1">
          <mxGeometry x="160" y="60" width="670" height="600" as="geometry" />
        </mxCell>
        <mxCell id="5r4Gnk9QoCO9Y91nPAs9-5" value="AWS" style="text;html=1;strokeColor=none;fillColor=none;align=center;verticalAlign=middle;whiteSpace=wrap;rounded=0;" vertex="1" parent="1">
          <mxGeometry x="160" y="60" width="60" height="30" as="geometry" />
        </mxCell>
        <mxCell id="5r4Gnk9QoCO9Y91nPAs9-6" value="" style="rounded=0;whiteSpace=wrap;html=1;" vertex="1" parent="1">
          <mxGeometry x="200" y="130" width="410" height="150" as="geometry" />
        </mxCell>
        <mxCell id="5r4Gnk9QoCO9Y91nPAs9-8" value="Clients API" style="text;html=1;strokeColor=none;fillColor=none;align=center;verticalAlign=middle;whiteSpace=wrap;rounded=0;" vertex="1" parent="1">
          <mxGeometry x="200" y="130" width="80" height="30" as="geometry" />
        </mxCell>
        <mxCell id="5r4Gnk9QoCO9Y91nPAs9-13" style="edgeStyle=orthogonalEdgeStyle;rounded=0;orthogonalLoop=1;jettySize=auto;html=1;entryX=0;entryY=0.5;entryDx=0;entryDy=0;" edge="1" parent="1" source="5r4Gnk9QoCO9Y91nPAs9-9" target="5r4Gnk9QoCO9Y91nPAs9-10">
          <mxGeometry relative="1" as="geometry" />
        </mxCell>
        <mxCell id="5r4Gnk9QoCO9Y91nPAs9-9" value="Client CloudFront&lt;br&gt;CDN" style="rounded=0;whiteSpace=wrap;html=1;" vertex="1" parent="1">
          <mxGeometry x="220" y="200" width="90" height="50" as="geometry" />
        </mxCell>
        <mxCell id="5r4Gnk9QoCO9Y91nPAs9-14" style="edgeStyle=orthogonalEdgeStyle;rounded=0;orthogonalLoop=1;jettySize=auto;html=1;entryX=0;entryY=0.5;entryDx=0;entryDy=0;" edge="1" parent="1" source="5r4Gnk9QoCO9Y91nPAs9-10" target="5r4Gnk9QoCO9Y91nPAs9-11">
          <mxGeometry relative="1" as="geometry" />
        </mxCell>
        <mxCell id="5r4Gnk9QoCO9Y91nPAs9-10" value="Client API Gateway" style="rounded=0;whiteSpace=wrap;html=1;" vertex="1" parent="1">
          <mxGeometry x="350" y="200" width="90" height="50" as="geometry" />
        </mxCell>
        <mxCell id="5r4Gnk9QoCO9Y91nPAs9-16" style="edgeStyle=orthogonalEdgeStyle;rounded=0;orthogonalLoop=1;jettySize=auto;html=1;entryX=0;entryY=0.5;entryDx=0;entryDy=0;entryPerimeter=0;" edge="1" parent="1" source="5r4Gnk9QoCO9Y91nPAs9-11" target="5r4Gnk9QoCO9Y91nPAs9-15">
          <mxGeometry relative="1" as="geometry" />
        </mxCell>
        <mxCell id="5r4Gnk9QoCO9Y91nPAs9-11" value="Client API Lambda" style="rounded=0;whiteSpace=wrap;html=1;" vertex="1" parent="1">
          <mxGeometry x="470" y="200" width="100" height="50" as="geometry" />
        </mxCell>
        <mxCell id="5r4Gnk9QoCO9Y91nPAs9-15" value="database postgres" style="shape=cylinder3;whiteSpace=wrap;html=1;boundedLbl=1;backgroundOutline=1;size=15;" vertex="1" parent="1">
          <mxGeometry x="680" y="100" width="60" height="80" as="geometry" />
        </mxCell>
        <mxCell id="5r4Gnk9QoCO9Y91nPAs9-22" value="SecretsManager&lt;br&gt;Private Key" style="rounded=0;whiteSpace=wrap;html=1;" vertex="1" parent="1">
          <mxGeometry x="425" y="390" width="120" height="60" as="geometry" />
        </mxCell>
        <mxCell id="5r4Gnk9QoCO9Y91nPAs9-28" style="edgeStyle=orthogonalEdgeStyle;rounded=0;orthogonalLoop=1;jettySize=auto;html=1;entryX=0;entryY=0.5;entryDx=0;entryDy=0;" edge="1" parent="1" source="5r4Gnk9QoCO9Y91nPAs9-25" target="5r4Gnk9QoCO9Y91nPAs9-27">
          <mxGeometry relative="1" as="geometry" />
        </mxCell>
        <mxCell id="5r4Gnk9QoCO9Y91nPAs9-25" value="sqs queue&lt;br&gt;incoming websocket events" style="rounded=1;whiteSpace=wrap;html=1;" vertex="1" parent="1">
          <mxGeometry x="350" y="310" width="130" height="40" as="geometry" />
        </mxCell>
        <mxCell id="5r4Gnk9QoCO9Y91nPAs9-29" style="edgeStyle=orthogonalEdgeStyle;rounded=0;orthogonalLoop=1;jettySize=auto;html=1;" edge="1" parent="1" source="5r4Gnk9QoCO9Y91nPAs9-27">
          <mxGeometry relative="1" as="geometry">
            <mxPoint x="680" y="160" as="targetPoint" />
            <Array as="points">
              <mxPoint x="640" y="330" />
              <mxPoint x="640" y="160" />
            </Array>
          </mxGeometry>
        </mxCell>
        <mxCell id="5r4Gnk9QoCO9Y91nPAs9-27" value="incoming event processor&lt;br&gt;(lambda)" style="rounded=0;whiteSpace=wrap;html=1;" vertex="1" parent="1">
          <mxGeometry x="510" y="300" width="120" height="60" as="geometry" />
        </mxCell>
        <mxCell id="5r4Gnk9QoCO9Y91nPAs9-33" style="edgeStyle=orthogonalEdgeStyle;rounded=0;orthogonalLoop=1;jettySize=auto;html=1;entryX=1;entryY=0.5;entryDx=0;entryDy=0;" edge="1" parent="1" source="5r4Gnk9QoCO9Y91nPAs9-30" target="5r4Gnk9QoCO9Y91nPAs9-31">
          <mxGeometry relative="1" as="geometry" />
        </mxCell>
        <mxCell id="5r4Gnk9QoCO9Y91nPAs9-30" value="CloudWatch&lt;br&gt;Events&lt;br&gt;(Cron Scheduler)" style="rounded=0;whiteSpace=wrap;html=1;" vertex="1" parent="1">
          <mxGeometry x="670" y="520" width="120" height="60" as="geometry" />
        </mxCell>
        <mxCell id="5r4Gnk9QoCO9Y91nPAs9-35" style="edgeStyle=orthogonalEdgeStyle;rounded=0;orthogonalLoop=1;jettySize=auto;html=1;entryX=1;entryY=0.75;entryDx=0;entryDy=0;" edge="1" parent="1" source="5r4Gnk9QoCO9Y91nPAs9-31" target="5r4Gnk9QoCO9Y91nPAs9-3">
          <mxGeometry relative="1" as="geometry" />
        </mxCell>
        <mxCell id="5r4Gnk9QoCO9Y91nPAs9-36" style="edgeStyle=orthogonalEdgeStyle;rounded=0;orthogonalLoop=1;jettySize=auto;html=1;entryX=0.5;entryY=1;entryDx=0;entryDy=0;" edge="1" parent="1" source="5r4Gnk9QoCO9Y91nPAs9-31" target="5r4Gnk9QoCO9Y91nPAs9-22">
          <mxGeometry relative="1" as="geometry" />
        </mxCell>
        <mxCell id="5r4Gnk9QoCO9Y91nPAs9-37" style="edgeStyle=orthogonalEdgeStyle;rounded=0;orthogonalLoop=1;jettySize=auto;html=1;entryX=0.5;entryY=1;entryDx=0;entryDy=0;entryPerimeter=0;" edge="1" parent="1" source="5r4Gnk9QoCO9Y91nPAs9-31" target="5r4Gnk9QoCO9Y91nPAs9-15">
          <mxGeometry relative="1" as="geometry">
            <Array as="points">
              <mxPoint x="600" y="480" />
              <mxPoint x="600" y="440" />
              <mxPoint x="710" y="440" />
            </Array>
          </mxGeometry>
        </mxCell>
        <mxCell id="5r4Gnk9QoCO9Y91nPAs9-38" value="read only &lt;br&gt;connection" style="edgeLabel;html=1;align=center;verticalAlign=middle;resizable=0;points=[];" vertex="1" connectable="0" parent="5r4Gnk9QoCO9Y91nPAs9-37">
          <mxGeometry x="0.5699" y="-2" relative="1" as="geometry">
            <mxPoint as="offset" />
          </mxGeometry>
        </mxCell>
        <mxCell id="5r4Gnk9QoCO9Y91nPAs9-31" value="Settlement service&lt;br&gt;(lambda)" style="rounded=0;whiteSpace=wrap;html=1;" vertex="1" parent="1">
          <mxGeometry x="425" y="470" width="120" height="60" as="geometry" />
        </mxCell>
        <mxCell id="5r4Gnk9QoCO9Y91nPAs9-12" style="edgeStyle=orthogonalEdgeStyle;rounded=0;orthogonalLoop=1;jettySize=auto;html=1;entryX=0;entryY=0.5;entryDx=0;entryDy=0;" edge="1" parent="1" source="5r4Gnk9QoCO9Y91nPAs9-1" target="5r4Gnk9QoCO9Y91nPAs9-9">
          <mxGeometry relative="1" as="geometry">
            <Array as="points">
              <mxPoint x="110" y="225" />
              <mxPoint x="110" y="225" />
            </Array>
          </mxGeometry>
        </mxCell>
        <mxCell id="5r4Gnk9QoCO9Y91nPAs9-40" value="" style="rounded=0;whiteSpace=wrap;html=1;" vertex="1" parent="1">
          <mxGeometry x="200" y="370" width="150" height="270" as="geometry" />
        </mxCell>
        <mxCell id="5r4Gnk9QoCO9Y91nPAs9-41" value="ETH webhook API" style="text;html=1;strokeColor=none;fillColor=none;align=center;verticalAlign=middle;whiteSpace=wrap;rounded=0;" vertex="1" parent="1">
          <mxGeometry x="200" y="370" width="120" height="30" as="geometry" />
        </mxCell>
        <mxCell id="5r4Gnk9QoCO9Y91nPAs9-48" style="edgeStyle=orthogonalEdgeStyle;rounded=0;orthogonalLoop=1;jettySize=auto;html=1;entryX=0.5;entryY=1;entryDx=0;entryDy=0;" edge="1" parent="1" source="5r4Gnk9QoCO9Y91nPAs9-44" target="5r4Gnk9QoCO9Y91nPAs9-45">
          <mxGeometry relative="1" as="geometry" />
        </mxCell>
        <mxCell id="5r4Gnk9QoCO9Y91nPAs9-44" value="ETH&lt;br&gt;CloudFront&lt;br&gt;CDN" style="rounded=0;whiteSpace=wrap;html=1;" vertex="1" parent="1">
          <mxGeometry x="230" y="570" width="90" height="50" as="geometry" />
        </mxCell>
        <mxCell id="5r4Gnk9QoCO9Y91nPAs9-49" style="edgeStyle=orthogonalEdgeStyle;rounded=0;orthogonalLoop=1;jettySize=auto;html=1;entryX=0.5;entryY=1;entryDx=0;entryDy=0;" edge="1" parent="1" source="5r4Gnk9QoCO9Y91nPAs9-45" target="5r4Gnk9QoCO9Y91nPAs9-46">
          <mxGeometry relative="1" as="geometry" />
        </mxCell>
        <mxCell id="5r4Gnk9QoCO9Y91nPAs9-45" value="ETH API Gateway" style="rounded=0;whiteSpace=wrap;html=1;" vertex="1" parent="1">
          <mxGeometry x="230" y="500" width="90" height="50" as="geometry" />
        </mxCell>
        <mxCell id="5r4Gnk9QoCO9Y91nPAs9-50" style="edgeStyle=orthogonalEdgeStyle;rounded=0;orthogonalLoop=1;jettySize=auto;html=1;" edge="1" parent="1" source="5r4Gnk9QoCO9Y91nPAs9-46">
          <mxGeometry relative="1" as="geometry">
            <mxPoint x="390" y="350" as="targetPoint" />
            <Array as="points">
              <mxPoint x="390" y="445" />
              <mxPoint x="390" y="350" />
            </Array>
          </mxGeometry>
        </mxCell>
        <mxCell id="5r4Gnk9QoCO9Y91nPAs9-46" value="ETH message processor" style="rounded=0;whiteSpace=wrap;html=1;" vertex="1" parent="1">
          <mxGeometry x="225" y="420" width="100" height="50" as="geometry" />
        </mxCell>
        <mxCell id="5r4Gnk9QoCO9Y91nPAs9-47" style="edgeStyle=orthogonalEdgeStyle;rounded=0;orthogonalLoop=1;jettySize=auto;html=1;entryX=0.5;entryY=1;entryDx=0;entryDy=0;" edge="1" parent="1" source="5r4Gnk9QoCO9Y91nPAs9-3" target="5r4Gnk9QoCO9Y91nPAs9-44">
          <mxGeometry relative="1" as="geometry" />
        </mxCell>
      </root>
    </mxGraphModel>
  </diagram>
</mxfile>
